<mxfile host="app.diagrams.net" modified="2023-11-06T20:43:31.520Z" agent="Mozilla/5.0 (Macintosh; Intel Mac OS X 10_15_7) AppleWebKit/537.36 (KHTML, like Gecko) Chrome/119.0.0.0 Safari/537.36" etag="5WSQ_xOlFxuEWpY3zksr" version="22.0.8" type="device">
  <diagram name="Page-1" id="c7558073-3199-34d8-9f00-42111426c3f3">
    <mxGraphModel dx="954" dy="610" grid="1" gridSize="10" guides="1" tooltips="1" connect="1" arrows="1" fold="1" page="1" pageScale="1" pageWidth="826" pageHeight="1169" background="none" math="0" shadow="0">
      <root>
        <mxCell id="0" />
        <mxCell id="1" parent="0" />
        <mxCell id="iilJDLwoaOfIS8HcgSTI-96" value="calc player score" style="rounded=1;whiteSpace=wrap;html=1;" vertex="1" parent="1">
          <mxGeometry x="300" y="550" width="97" height="40" as="geometry" />
        </mxCell>
        <mxCell id="iilJDLwoaOfIS8HcgSTI-122" value="play" style="ellipse;whiteSpace=wrap;html=1;rounded=1;" vertex="1" parent="1">
          <mxGeometry x="258.5" y="490" width="60" height="45" as="geometry" />
        </mxCell>
        <mxCell id="iilJDLwoaOfIS8HcgSTI-125" value="Update Strategy" style="text;html=1;strokeColor=none;fillColor=none;align=center;verticalAlign=middle;whiteSpace=wrap;rounded=0;" vertex="1" parent="1">
          <mxGeometry x="170" y="450" width="60" height="30" as="geometry" />
        </mxCell>
        <mxCell id="iilJDLwoaOfIS8HcgSTI-148" value="calc dealer score" style="rounded=1;whiteSpace=wrap;html=1;" vertex="1" parent="1">
          <mxGeometry x="170" y="550" width="97" height="40" as="geometry" />
        </mxCell>
        <mxCell id="iilJDLwoaOfIS8HcgSTI-149" value="compare scores" style="rounded=1;whiteSpace=wrap;html=1;" vertex="1" parent="1">
          <mxGeometry x="240" y="620" width="97" height="40" as="geometry" />
        </mxCell>
        <mxCell id="iilJDLwoaOfIS8HcgSTI-150" value="" style="endArrow=classic;html=1;rounded=0;exitX=0.5;exitY=1;exitDx=0;exitDy=0;entryX=0.5;entryY=0;entryDx=0;entryDy=0;" edge="1" parent="1" source="iilJDLwoaOfIS8HcgSTI-122" target="iilJDLwoaOfIS8HcgSTI-96">
          <mxGeometry width="50" height="50" relative="1" as="geometry">
            <mxPoint x="390" y="650" as="sourcePoint" />
            <mxPoint x="440" y="600" as="targetPoint" />
          </mxGeometry>
        </mxCell>
        <mxCell id="iilJDLwoaOfIS8HcgSTI-151" value="" style="endArrow=classic;html=1;rounded=0;exitX=0.5;exitY=1;exitDx=0;exitDy=0;entryX=0.66;entryY=0;entryDx=0;entryDy=0;entryPerimeter=0;" edge="1" parent="1" source="iilJDLwoaOfIS8HcgSTI-122" target="iilJDLwoaOfIS8HcgSTI-148">
          <mxGeometry width="50" height="50" relative="1" as="geometry">
            <mxPoint x="390" y="650" as="sourcePoint" />
            <mxPoint x="440" y="600" as="targetPoint" />
          </mxGeometry>
        </mxCell>
        <mxCell id="iilJDLwoaOfIS8HcgSTI-152" value="" style="endArrow=classic;html=1;rounded=0;exitX=0.5;exitY=1;exitDx=0;exitDy=0;entryX=0.423;entryY=-0.1;entryDx=0;entryDy=0;entryPerimeter=0;" edge="1" parent="1" source="iilJDLwoaOfIS8HcgSTI-148" target="iilJDLwoaOfIS8HcgSTI-149">
          <mxGeometry width="50" height="50" relative="1" as="geometry">
            <mxPoint x="390" y="650" as="sourcePoint" />
            <mxPoint x="440" y="600" as="targetPoint" />
          </mxGeometry>
        </mxCell>
        <mxCell id="iilJDLwoaOfIS8HcgSTI-153" value="" style="endArrow=classic;html=1;rounded=0;exitX=0.5;exitY=1;exitDx=0;exitDy=0;entryX=0.608;entryY=0.025;entryDx=0;entryDy=0;entryPerimeter=0;" edge="1" parent="1" source="iilJDLwoaOfIS8HcgSTI-96" target="iilJDLwoaOfIS8HcgSTI-149">
          <mxGeometry width="50" height="50" relative="1" as="geometry">
            <mxPoint x="390" y="650" as="sourcePoint" />
            <mxPoint x="440" y="600" as="targetPoint" />
          </mxGeometry>
        </mxCell>
        <mxCell id="iilJDLwoaOfIS8HcgSTI-154" value="player hand, decision" style="text;html=1;strokeColor=none;fillColor=none;align=center;verticalAlign=middle;whiteSpace=wrap;rounded=0;" vertex="1" parent="1">
          <mxGeometry x="330" y="600" width="90" height="30" as="geometry" />
        </mxCell>
        <mxCell id="iilJDLwoaOfIS8HcgSTI-155" value="dealer card" style="text;html=1;strokeColor=none;fillColor=none;align=center;verticalAlign=middle;whiteSpace=wrap;rounded=0;" vertex="1" parent="1">
          <mxGeometry x="188.5" y="600" width="60" height="30" as="geometry" />
        </mxCell>
        <mxCell id="iilJDLwoaOfIS8HcgSTI-156" value="increment hand score decision&amp;nbsp; matrix" style="rounded=1;whiteSpace=wrap;html=1;" vertex="1" parent="1">
          <mxGeometry x="240" y="690" width="97" height="40" as="geometry" />
        </mxCell>
        <mxCell id="iilJDLwoaOfIS8HcgSTI-157" value="" style="endArrow=classic;html=1;rounded=0;" edge="1" parent="1" source="iilJDLwoaOfIS8HcgSTI-149">
          <mxGeometry width="50" height="50" relative="1" as="geometry">
            <mxPoint x="288.5" y="710" as="sourcePoint" />
            <mxPoint x="289" y="690" as="targetPoint" />
          </mxGeometry>
        </mxCell>
      </root>
    </mxGraphModel>
  </diagram>
</mxfile>
